<svg
  width="643"
  height="395"
  viewBox="0 0 643 395"
  fill="none"
  xmlns="http://www.w3.org/2000/svg"
>
  <g clip-path="url(#clip0_9_2)">
    <path
      opacity="0.07"
      d="M539.5 371.6C536.8 371.6 633.2 162.8 529.7 192.5C426.2 222.2 409.3 231.1 427.1 160.6C444.9 90.1 390.5 -73.1 305.8 37.5C221.1 148.1 103.3 80.3 89 141.9C74.7 203.5 142.5 217.7 99.7 244.5C56.9 271.3 83.6 371.6 83.6 371.6H539.5Z"
      fill="#8F8F8F"
    />
    <path
      d="M633.2 394.8H9.39996C4.29996 394.8 0.0999756 390.6 0.0999756 385.5V377.4C0.0999756 372.3 4.29996 368.1 9.39996 368.1H633.1C638.2 368.1 642.4 372.3 642.4 377.4V385.5C642.5 390.7 638.3 394.8 633.2 394.8Z"
      fill="#D3D3D3"
    />
    <path d="M154.3 316.7H198.7V369H154.3V316.7Z" fill="#AAAAAA" />
    <path
      d="M155.6 364.1C145.5 364.1 137.2 355.9 137.2 345.7C137.2 335.5 145.4 327.3 155.6 327.3C165.8 327.3 174 335.5 174 345.7C174 355.9 165.8 364.1 155.6 364.1ZM155.6 331.4C147.7 331.4 141.2 337.8 141.2 345.8C141.2 353.8 147.6 360.2 155.6 360.2C163.6 360.2 170 353.8 170 345.8C170 337.8 163.5 331.4 155.6 331.4Z"
      fill="#AAAAAA"
    />
    <g opacity="0.41">
      <path
        d="M183.5 313.3C183 313.3 182.6 313.1 182.3 312.7C182.1 312.4 177.5 306.2 178.9 299.4C179.7 295.5 182.3 292.2 186.5 289.7C191.5 286.8 191.8 284.9 191.7 284.3C191.5 282.7 188.3 281.3 186.8 280.9C186 280.7 185.5 279.9 185.7 279.1C185.9 278.3 186.7 277.8 187.5 278C188.2 278.2 194 279.9 194.6 283.9C195 286.7 192.8 289.4 187.9 292.3C184.4 294.4 182.3 297 181.7 300C180.6 305.5 184.6 310.8 184.6 310.9C185.1 311.6 185 312.5 184.3 313C184.1 313.2 183.8 313.3 183.5 313.3Z"
        fill="#AAAAAA"
      />
    </g>
    <g opacity="0.41">
      <path
        d="M167 311.8C166.3 311.8 165.7 311.3 165.5 310.7C165.3 309.9 165.8 309.1 166.6 308.9C168.8 308.4 169.1 307.8 169.1 307.8C169.1 307.4 168.6 305.9 160.4 301.1C158.1 299.8 157.8 298.2 157.8 297.1C158.1 292.1 169.1 287.2 171.3 286.3C172.1 286 172.9 286.3 173.3 287.1C173.6 287.9 173.3 288.7 172.5 289.1C167 291.5 160.9 295.3 160.8 297.4C160.8 297.8 161.1 298.2 161.9 298.6C168.6 302.5 172.5 305.4 172 308.3C171.6 310.8 168.3 311.6 167.3 311.9C167.2 311.8 167.1 311.8 167 311.8Z"
        fill="#AAAAAA"
      />
    </g>
    <g opacity="0.41">
      <path
        d="M175.3 278.9C174.9 278.9 174.6 278.8 174.3 278.5C173.7 277.9 173.7 277 174.2 276.4C175 275.6 177.1 272.7 176.6 270.9C176.4 270.1 175.5 269.4 174.1 269C171.5 268.2 170.7 266.7 170.5 265.5C169.7 261.2 176.4 255.8 177.8 254.7C178.5 254.2 179.4 254.3 179.9 255C180.4 255.7 180.3 256.6 179.6 257.1C176.9 259.2 173.1 263.1 173.4 265C173.5 265.5 174 265.8 174.9 266.1C177.4 266.9 178.9 268.2 179.4 270.1C180.4 273.9 176.7 277.9 176.3 278.4C176.1 278.8 175.7 278.9 175.3 278.9Z"
        fill="#AAAAAA"
      />
    </g>
    <path
      d="M384.3 253.1C385.2 240.9 385.8 229.5 386.2 218.9C383.3 217.3 379.7 215.5 376.9 214.2C368.2 210 356 204.4 348.2 200.8C343.6 198.7 339.1 197.2 339.1 197.2C339.1 197.2 307.9 194.2 305.3 194.4C304.5 194.4 300.6 195.8 295.5 197.8C284.4 202 263.1 210.6 259.7 213C254.7 216.6 236.9 304 236.4 310C235.9 315.8 260.7 323.7 283.6 329.7C283.6 338.6 283.4 351 283.2 362.3C283.2 364.2 283.1 366.1 283.1 368H383.3C383.2 366.1 383 364.1 382.9 362.3V361.6C382.5 353.9 381 340.2 381.4 326.8C381.4 326.8 381.2 312.7 382.6 306.6C382.7 279.7 384.3 253.1 384.3 253.1ZM257.2 304.6C257.4 293.2 272.5 272 272.5 272L273.2 271.7L274 271.6L276.4 269.4C277 271.4 282 300 283.2 316.7C269 313.9 257.2 310 257.2 304.6Z"
      fill="#D3D3D3"
    />
    <path
      d="M386.2 362.3C385.5 357.6 384.9 352.8 384.4 348.2V348.1C384.2 346.6 384 345 383.9 343.5V343.3C383.2 336.9 382.6 330.8 382.1 325.2C381.8 320.9 382.1 316.7 382.7 312.6C384.4 283.9 385.3 253.6 385.3 253.6C386.2 241.2 386.7 229.6 387.1 218.8C387.1 218.8 347.9 200.3 344.3 199.2C344.3 199.2 351.7 216.7 357.3 255.7C359.4 270.7 363.4 295.9 366.3 321.7C367.9 335.6 370.8 349.8 373 362.3C373.3 364.2 373.7 366.1 374 368H387C386.7 366.1 386.4 364.2 386.2 362.3ZM320.9 316.2C322.4 301.7 323.8 287.2 323.2 279.3C317.8 215.5 302.5 198.6 300.3 196.1C298.6 196.8 292.1 199.2 290.1 200C279.6 204.1 258.3 211.7 255.4 213.8C250.4 217.4 230.8 309.1 230.2 315C229.8 319 255.5 327.4 281.6 334.9C281.4 342.1 282 352.2 279.7 362.8C279.3 364.7 278.7 365.9 278.6 368.3L315 368C315.2 366.1 315.5 364.2 315.7 362.3C316.4 356.6 317.1 350.8 317.8 344.5C328.7 347.3 336.2 349.2 336.2 349.2C336.2 349.2 346.5 331.8 349.5 324.8C349.9 323.6 336.7 320.4 320.9 316.2ZM273.7 294.2C273.4 281.1 273.4 272 273.4 272C274.7 276.5 276.5 289.3 278.1 302C272.7 299.4 273.7 296.9 273.7 294.2Z"
      fill="#AAAAAA"
    />
    <path
      d="M303.7 195.4C303.7 195.4 307.7 187.9 306.6 166.6C306.3 160.7 337.6 180.6 337.6 180.6C337.6 180.6 337.5 182.6 337.4 185.4C337.4 186.5 337.3 187.8 337.3 189.1V191.9C337.3 192.6 337.3 193.3 337.4 194C337.4 194.8 337.5 195.5 337.6 196.2C337.7 197.5 338.5 199.8 338.8 200.4C340.2 203.6 315.4 203.8 303.7 195.4Z"
      fill="#E4E4E4"
    />
    <path
      d="M336.1 201.8L330 209C330 209 320.1 207.1 317.2 201.9C314.2 196.7 336.1 201.8 336.1 201.8Z"
      fill="#E4E4E4"
    />
    <path
      d="M395.5 276.6C386.6 263.8 378.2 260.7 378.2 260.7C378.2 260.7 352 230 373 216.3C373 216.3 382 216.1 387 218.8C392.1 221.6 402.9 244.2 404.8 248.2C406.6 252.2 406.9 258.4 408.2 259.3C408.1 259.2 410.4 275.2 395.5 276.6Z"
      fill="#AAAAAA"
    />
    <path
      d="M361.7 356.9C361.7 356.9 359 356.8 357.9 356.2C357.9 356.2 355.9 354.9 354.4 354.1C353.9 353.8 353.5 353.6 353.2 353.5C352 353 349.3 352.4 346.8 350.5C344.3 348.6 336.1 341 336.1 341L341.4 332.9L343.8 324.9C343.8 324.9 362.8 326.8 365.4 328.3C365.6 328.4 365.9 328.6 366.1 328.8C368.1 330.3 369 332.2 370 333.1C370.4 333.4 373.7 337 373.5 338.4C373.2 340.4 372.3 341.7 371 342.3C371 342.3 370.3 346.2 368.3 347.9C368.3 347.9 367.8 351.5 364.7 353C364.7 352.9 363.8 356.5 361.7 356.9ZM320.4 112C320.4 112 352 96 354.9 140.1C357.8 184.1 350.6 189.5 328.2 185.8C305.8 182.2 300.8 154.7 296.5 141.7C292.2 128.8 309.8 115.2 320.4 112Z"
      fill="#E4E4E4"
    />
    <path
      d="M313.3 141.8C312.8 138 305.2 136.7 304.7 142.4C304.2 148.2 308.4 158.2 311.2 157.1C314 156.1 314 147.1 313.3 141.8Z"
      fill="#E4E4E4"
    />
    <path
      d="M303.6 163C303.6 163 301.1 149.5 305.9 147.9C310.6 146.3 312.7 151.4 312.7 151.4L317.8 151.1C317.8 151.1 313.3 139.9 317.7 136.6C322 133.4 350.7 135.1 353.7 130.7C356.7 126.3 369.7 109.1 340.3 108.1C329 107.7 311.3 104.1 303.4 116.7C303.4 116.7 292.7 121.2 292.8 124.9C292.8 134.4 298.9 157.1 303.6 163Z"
      fill="#3D3D3D"
    />
    <path
      d="M350.4 324.8L336.2 349.2C336.2 349.2 298.6 339.5 289.8 337L309.9 313.1C309.8 313.2 339.4 319.9 350.4 324.8Z"
      fill="#AAAAAA"
    />
    <path
      d="M337.5 191.6C319 189.7 311.9 175.5 311.9 175.5C323.5 187 337.4 186.7 337.4 186.7V189.5C337.4 190.2 337.4 190.9 337.5 191.6Z"
      fill="#D6D6D6"
    />
    <path
      d="M341.4 192.6C341.4 192.6 342.4 194.4 343.2 195C343.2 195 344.8 196 345.8 196.7C346.1 196.9 346.4 197.2 346.6 197.3C347.3 198 348.7 199.6 350.8 200.8C353 201.9 361 205.1 361 205.1L364.9 198.7L369.7 194.3C369.7 194.3 362.1 181.6 360.2 180.3L359.6 180C357.9 179.1 356.2 179.1 355.3 178.7C354.9 178.6 351.4 177.4 350.4 178C349.1 178.8 348.5 180 348.5 181C348.5 181 346 182.8 345.4 184.7C345.4 184.7 343 186.2 343.1 188.9C343.2 189.1 340.9 191 341.4 192.6Z"
      fill="#E4E4E4"
    />
    <path
      d="M370.4 191C370.4 191 401.4 238 403.2 251.5C405 265 396.5 270.8 389.2 266.4C382 262 358.2 206.4 358.2 206.4L370.4 191Z"
      fill="#AAAAAA"
    />
    <path
      d="M462.6 56.7C415.4 56.7 377.2 78.8 377.2 106.1C377.2 116.7 383 126.6 392.9 134.6L391.6 145.7L402.1 140.9C417.6 149.9 439 155.4 462.6 155.4C509.8 155.4 548 133.3 548 106C548 78.7 509.8 56.7 462.6 56.7Z"
      fill="#3D3D3D"
    />
    <path
      d="M412.9 109.2C415.441 109.2 417.5 107.141 417.5 104.6C417.5 102.059 415.441 100 412.9 100C410.36 100 408.3 102.059 408.3 104.6C408.3 107.141 410.36 109.2 412.9 109.2Z"
      fill="#F0F0F0"
    />
    <path
      d="M432.8 109.2C435.34 109.2 437.4 107.141 437.4 104.6C437.4 102.059 435.34 100 432.8 100C430.259 100 428.2 102.059 428.2 104.6C428.2 107.141 430.259 109.2 432.8 109.2Z"
      fill="#F0F0F0"
    />
    <path
      d="M452.8 109.2C455.34 109.2 457.4 107.141 457.4 104.6C457.4 102.059 455.34 100 452.8 100C450.259 100 448.2 102.059 448.2 104.6C448.2 107.141 450.259 109.2 452.8 109.2Z"
      fill="#F0F0F0"
    />
    <path
      d="M472.8 109.2C475.34 109.2 477.4 107.141 477.4 104.6C477.4 102.059 475.34 100 472.8 100C470.259 100 468.2 102.059 468.2 104.6C468.2 107.141 470.259 109.2 472.8 109.2Z"
      fill="#F0F0F0"
    />
    <path
      d="M492.8 109.2C495.34 109.2 497.4 107.141 497.4 104.6C497.4 102.059 495.34 100 492.8 100C490.259 100 488.2 102.059 488.2 104.6C488.2 107.141 490.259 109.2 492.8 109.2Z"
      fill="#F0F0F0"
    />
    <path
      d="M512.7 109.2C515.241 109.2 517.3 107.141 517.3 104.6C517.3 102.059 515.241 100 512.7 100C510.16 100 508.1 102.059 508.1 104.6C508.1 107.141 510.16 109.2 512.7 109.2Z"
      fill="#F0F0F0"
    />
    <path
      d="M435.7 274.9L425.7 368.2H557.7L567.8 274.9H435.7Z"
      fill="#8F8F8F"
    />
    <path
      d="M437.236 368.116H415.136V359.716H437.236V368.116Z"
      fill="#8F8F8F"
    />
    <path
      d="M489.4 320C488.3 325.2 490.8 330.1 494.8 330.9C498.8 331.7 503 328.2 504.1 323C505.2 317.8 502.7 312.9 498.7 312.1C494.6 311.3 490.5 314.8 489.4 320Z"
      fill="#D3D3D3"
    />
  </g>
  <defs>
    <clipPath id="clip0_9_2">
      <rect width="643" height="395" fill="white" />
    </clipPath>
  </defs>
</svg>
