<svg width="400" height="400" viewBox="0 0 400 400" fill="none" xmlns="http://www.w3.org/2000/svg">
<path fill-rule="evenodd" clip-rule="evenodd" d="M205.884 265.301C228.267 275.113 252.924 278.857 277.351 276.042C305.967 272.743 332.843 260.605 354.237 241.316C375.631 222.028 390.48 196.549 396.716 168.427C402.951 140.304 400.264 110.937 389.028 84.4135C387.436 80.6561 384.417 77.685 380.634 76.1539C376.852 74.6228 372.616 74.6572 368.859 76.2495C367.037 77.0213 365.374 78.1406 363.975 79.5393L289.101 154.414L252.839 147.161L245.586 110.899L320.461 36.0248C321.839 34.6462 322.943 33.0181 323.714 31.2272C325.333 27.4654 325.388 23.2056 323.862 19.4052C322.336 15.6049 319.357 12.5698 315.587 10.9723C289.063 -0.263962 259.696 -2.95129 231.573 3.28443C203.451 9.52015 177.972 24.3686 158.684 45.763C139.395 67.1574 127.257 94.0332 123.958 122.649C121.143 147.076 124.887 171.733 134.699 194.116L18.8278 294.201C18.5423 294.448 18.2661 294.705 17.9996 294.971C6.46964 306.514 -0.00464028 322.164 2.49531e-06 338.479C0.00464527 354.794 6.48783 370.439 18.0243 381.976C29.5608 393.512 45.2063 399.995 61.5213 400C77.8364 400.005 93.4855 393.53 105.029 382C105.295 381.734 105.552 381.458 105.799 381.172L205.884 265.301Z" fill="#2DD4BF"/>
</svg>
